<svg xmlns="http://www.w3.org/2000/svg" viewBox="0 0 512 512">
  <rect width="512" height="512" rx="102" fill="#FFFC00"/>
  <path d="M256 102c-40 0-77 21-93 51-11 21-11 40-5 61 5 16 11 29 21 40 11 16 16 27 16 40 0 11-5 21-16 29l-16 16c-5 5-5 11 0 16s11 5 16 0l27-21c11-11 27-16 51-16s40 5 51 16l27 21c5 5 11 5 16 0s5-11 0-16l-16-16c-11-8-16-18-16-29 0-13 5-24 16-40 11-11 16-24 21-40 5-21 5-40-5-61-16-30-53-51-93-51z" fill="#000"/>
  <circle cx="205" cy="216" r="21" fill="#000"/>
  <circle cx="307" cy="216" r="21" fill="#000"/>
</svg>

